<svg version="1.1" id="Layer_1" xmlns="http://www.w3.org/2000/svg" xmlns:xlink="http://www.w3.org/1999/xlink" x="0px" y="0px"
	 width="100%" viewBox="0 0 415 415" xml:space="preserve">

<path fill="#FFA62E" opacity="1.000000" stroke="none" 
	d="
M42.782391,189.999786 
	C57.209305,175.124786 72.782936,161.565445 91.038933,151.646881 
	C103.246696,145.014328 115.833992,138.846100 128.794495,133.890289 
	C146.484192,127.126160 164.976852,122.848953 183.963898,121.647911 
	C194.816650,120.961411 205.759598,120.582153 216.602249,121.168465 
	C227.503525,121.757942 238.391998,123.352051 249.175446,125.164261 
	C263.695374,127.604401 277.594757,132.390549 291.179016,137.993546 
	C310.375610,145.911438 328.213745,156.188370 344.091400,169.647568 
	C351.486816,175.916504 358.601471,182.516617 366.234985,189.311096 
	C367.029968,189.996857 367.433350,190.338104 367.873444,191.166870 
	C367.603210,231.110489 367.923798,270.585327 366.744781,310.015320 
	C366.079193,332.275696 355.101135,349.354309 333.455383,357.065918 
	C324.419495,360.285034 314.301636,361.714325 304.660309,361.782776 
	C245.689209,362.201660 186.713455,362.064240 127.739983,361.881958 
	C122.488792,361.865723 118.560768,363.483246 114.694138,366.723877 
	C107.687576,372.596222 100.431427,378.172241 93.236160,383.816742 
	C91.745285,384.986298 90.065544,385.915070 87.627296,387.506775 
	C87.345810,384.951904 87.044960,383.394012 87.025803,381.832611 
	C86.962433,376.669006 86.755478,371.488892 87.075813,366.344482 
	C87.343170,362.050659 85.640671,360.173492 81.555244,359.023712 
	C65.123718,354.399506 53.796059,343.929993 47.206688,328.191101 
	C42.109673,316.016724 42.455784,303.024994 42.212479,290.349976 
	C41.611500,259.041870 41.991295,227.714630 42.034843,196.395142 
	C42.037807,194.263016 42.522003,192.131561 42.782391,189.999786 
M155.246689,281.101227 
	C158.881348,286.442230 161.903915,292.355408 166.263245,297.019012 
	C180.422195,312.166290 198.209641,317.453156 218.130447,312.356934 
	C237.214508,307.474762 249.900574,294.605560 256.053070,275.958649 
	C260.016113,263.947571 255.279800,259.342224 243.002441,261.281342 
	C232.347473,262.964233 221.527634,264.922638 210.826477,264.686066 
	C194.587677,264.327148 178.388931,262.168701 162.172424,260.783264 
	C154.891678,260.161224 151.462906,263.546326 152.479187,270.759155 
	C152.938141,274.016388 154.126068,277.170898 155.246689,281.101227 
M178.928940,186.657623 
	C168.478500,176.302780 155.481949,178.102051 149.111633,191.251724 
	C144.863953,200.019806 145.314087,209.503128 148.415955,218.488068 
	C151.026169,226.048874 159.373840,231.306229 166.090195,230.918365 
	C173.183960,230.508698 179.446472,225.287094 182.047592,217.040024 
	C185.276627,206.802109 185.218063,196.732071 178.928940,186.657623 
M258.174988,187.390472 
	C254.077911,182.225479 248.852493,179.070786 242.184830,180.432877 
	C234.630051,181.976212 228.707657,186.740387 227.416626,194.278366 
	C226.182281,201.485489 226.371979,209.203293 227.455627,216.469986 
	C228.683289,224.702393 236.280991,230.365387 244.378204,230.922913 
	C251.241211,231.395477 257.919647,226.775238 261.002045,218.923874 
	C265.179352,208.283569 264.997375,197.848297 258.174988,187.390472 
z"/>
<path fill="#FF7F2A" opacity="1.000000" stroke="none" 
	d="
M42.451302,189.733734 
	C42.522003,192.131561 42.037807,194.263016 42.034843,196.395142 
	C41.991295,227.714630 41.611500,259.041870 42.212479,290.349976 
	C42.455784,303.024994 42.109673,316.016724 47.206688,328.191101 
	C53.796059,343.929993 65.123718,354.399506 81.555244,359.023712 
	C85.640671,360.173492 87.343170,362.050659 87.075813,366.344482 
	C86.755478,371.488892 86.962433,376.669006 87.025803,381.832611 
	C87.044960,383.394012 87.345810,384.951904 87.627296,387.506775 
	C90.065544,385.915070 91.745285,384.986298 93.236160,383.816742 
	C100.431427,378.172241 107.687576,372.596222 114.694138,366.723877 
	C118.560768,363.483246 122.488792,361.865723 127.739983,361.881958 
	C186.713455,362.064240 245.689209,362.201660 304.660309,361.782776 
	C314.301636,361.714325 324.419495,360.285034 333.455383,357.065918 
	C355.101135,349.354309 366.079193,332.275696 366.744781,310.015320 
	C367.923798,270.585327 367.603210,231.110489 367.924316,190.721588 
	C367.905853,179.524307 367.873199,169.259888 367.840515,158.995453 
	C367.893829,150.168198 367.981079,141.340958 367.987488,132.513657 
	C367.991150,127.435471 367.455566,122.682106 372.408020,118.682724 
	C376.803223,115.133354 379.895599,109.970604 383.563049,105.520020 
	C384.047821,105.742317 384.532593,105.964607 385.017365,106.186897 
	C385.017365,107.757896 385.017517,109.328896 385.017365,110.899895 
	C385.011475,172.881332 385.137543,234.863342 384.867157,296.843628 
	C384.823059,306.950989 383.721954,317.181549 381.849762,327.117859 
	C379.895691,337.488617 374.151123,346.264465 367.267090,354.333191 
	C356.816895,366.581818 343.603485,373.984711 328.097198,377.373383 
	C323.006165,378.485962 317.673553,378.922272 312.449951,378.932739 
	C258.299744,379.041321 204.149155,378.962128 149.998840,379.044006 
	C142.736237,379.054993 135.294785,378.824524 128.279785,380.318939 
	C124.065369,381.216766 120.523285,385.249603 116.667587,387.856567 
	C108.640556,393.283997 101.129608,399.842804 92.439095,403.825745 
	C82.054672,408.585083 69.608589,399.362183 70.146935,387.992859 
	C70.580574,378.834778 68.942047,373.249054 59.444500,368.129852 
	C42.880051,359.201569 32.186985,344.059357 27.693144,325.286682 
	C26.823551,321.654053 26.105959,317.883301 26.068392,314.168701 
	C25.629309,270.751831 25.301228,227.333740 25.016905,183.915497 
	C24.907804,167.254791 24.985090,150.592896 24.977434,133.003357 
	C25.274311,125.253868 25.571199,118.432541 25.868084,111.611214 
	C27.801399,113.121063 29.536924,115.053314 31.702415,116.067329 
	C40.872295,120.361198 42.668339,127.501801 42.234200,137.103790 
	C41.446545,154.524521 42.079960,172.009506 42.451302,189.733734 
z"/>
<path fill="#FF7F2A" opacity="1.000000" stroke="none" 
	d="
M171.000000,36.999489 
	C162.838913,36.999405 155.177063,36.937408 147.517181,37.033554 
	C144.912979,37.066246 143.606094,36.483204 142.597366,33.605000 
	C140.973816,28.972502 138.255310,24.723743 135.963028,20.241764 
	C175.983887,20.241764 216.323303,20.241764 256.727661,20.241764 
	C254.476990,25.807423 252.282639,31.233816 249.951080,36.999489 
	C224.100647,36.999489 197.800323,36.999489 171.000000,36.999489 
z"/>
<path fill="#FF812C" opacity="1.000000" stroke="none" 
	d="
M286.984436,32.348133 
	C285.080872,28.058331 283.191010,24.203911 281.243103,20.231207 
	C281.534210,20.206234 282.728149,19.985785 283.914764,20.020012 
	C297.830902,20.421442 311.864014,19.899754 325.624542,21.589678 
	C336.981079,22.984367 347.440765,28.064690 356.838196,35.169926 
	C364.995392,41.337429 370.664978,49.371986 376.188202,57.662689 
	C379.239197,62.242401 378.806061,62.760628 373.784302,65.201767 
	C370.167389,66.960014 367.041565,69.728493 363.640503,72.085274 
	C360.783722,67.532928 358.167572,63.065285 355.263550,58.793354 
	C347.014801,46.659019 334.874573,40.861134 320.845306,39.127235 
	C309.927521,37.777893 298.867249,37.581608 287.291779,36.835579 
	C287.199432,35.561527 287.098755,34.172520 286.984436,32.348133 
z"/>
<path fill="#FF812C" opacity="1.000000" stroke="none" 
	d="
M41.214912,46.282562 
	C59.487549,23.775015 83.196342,19.056511 113.101112,20.233232 
	C111.478416,22.982012 109.957367,25.528690 108.470116,28.094961 
	C107.980446,28.939888 107.434898,29.792576 107.158829,30.714739 
	C105.083595,37.646797 104.669022,37.674351 97.323418,38.051746 
	C75.345779,39.180908 54.214710,49.710850 46.936432,73.976204 
	C46.397297,75.773651 45.258640,77.391281 44.010689,79.860107 
	C39.460014,76.453369 34.939888,73.605049 31.201777,69.955696 
	C30.028917,68.810684 30.147696,65.096947 31.077543,63.274384 
	C34.015270,57.516258 37.617168,52.096981 41.214912,46.282562 
z"/>
<path fill="#FFA830" opacity="1.000000" stroke="none" 
	d="
M250.750458,87.259308 
	C245.975266,83.125626 248.132828,78.217293 249.173859,74.108879 
	C252.745056,60.014984 256.906830,46.068665 260.961609,32.100388 
	C262.560181,26.593403 265.435059,24.708128 271.261475,26.118368 
	C275.302765,27.096523 278.326447,30.426649 277.838959,34.685947 
	C277.143677,40.761219 275.495300,46.749897 273.969086,52.702511 
	C271.441772,62.559826 268.849060,72.406456 265.977631,82.167511 
	C263.672577,90.003189 258.129333,91.852554 250.750458,87.259308 
z"/>
<path fill="#FFA831" opacity="1.000000" stroke="none" 
	d="
M342.539215,111.936157 
	C350.958832,101.896996 358.774017,91.827835 367.361145,82.466827 
	C370.893616,78.616005 373.391449,72.886017 380.335541,72.858528 
	C384.682465,72.841316 386.975311,75.713295 388.412262,78.336975 
	C389.538483,80.393326 389.012512,84.588844 387.541290,86.613937 
	C381.988037,94.257713 375.793671,101.440308 369.751221,108.722458 
	C365.780151,113.508255 361.784271,118.285332 357.566620,122.851158 
	C353.647369,127.093956 348.945221,128.311050 345.873474,126.334366 
	C340.859283,123.107651 339.667908,118.463181 342.539215,111.936157 
z"/>
<path fill="#FFA831" opacity="1.000000" stroke="none" 
	d="
M146.984558,71.091858 
	C147.681656,75.349007 149.035080,79.252319 148.741165,83.027374 
	C148.578445,85.117538 146.015915,87.657417 143.892410,88.797379 
	C141.233170,90.224937 137.627136,90.496689 135.773575,87.187904 
	C132.629303,81.575066 129.410141,75.912651 127.136963,69.923958 
	C123.348213,59.942490 120.264740,49.692455 116.930786,39.540241 
	C116.482841,38.176224 116.126015,36.734737 116.036858,35.309738 
	C115.808777,31.663975 116.425690,28.100111 120.521637,27.063354 
	C126.370613,25.582876 130.199371,27.528370 132.057831,32.309673 
	C137.028915,45.098927 141.988708,57.892567 146.984558,71.091858 
z"/>
<path fill="#FFA830" opacity="1.000000" stroke="none" 
	d="
M35.323616,107.767929 
	C29.267834,103.026810 23.606287,98.369392 17.728220,94.003487 
	C11.894274,89.670357 10.949740,83.072914 15.821414,78.647789 
	C18.405573,76.300499 24.018145,76.291214 27.161337,78.663399 
	C39.451336,87.938698 51.740593,97.215034 64.014633,106.511436 
	C69.180977,110.424446 70.241241,115.741417 66.871445,120.521622 
	C64.505150,123.878281 58.966862,123.931602 54.062290,120.596786 
	C47.903488,116.409164 41.768341,112.186760 35.323616,107.767929 
z"/>
<path fill="#FFFDFA" opacity="1.000000" stroke="none" 
	d="
M367.468750,159.216843 
	C367.873199,169.259888 367.905853,179.524307 367.887634,190.234039 
	C367.433350,190.338104 367.029968,189.996857 366.545105,189.399567 
	C366.674774,179.241760 366.885895,169.339996 367.468750,159.216843 
z"/>
<path fill="#FFFDFB" opacity="1.000000" stroke="none" 
	d="
M25.899435,111.221039 
	C25.571199,118.432541 25.274311,125.253868 24.908096,132.539490 
	C24.567888,125.678062 24.293289,118.352448 24.105013,111.024597 
	C24.103758,110.975693 25.295898,110.896126 25.899435,111.221039 
z"/>
<path fill="#FF7F2A" opacity="1.000000" stroke="none" 
	d="
M155.114990,280.736633 
	C154.126068,277.170898 152.938141,274.016388 152.479187,270.759155 
	C151.462906,263.546326 154.891678,260.161224 162.172424,260.783264 
	C178.388931,262.168701 194.587677,264.327148 210.826477,264.686066 
	C221.527634,264.922638 232.347473,262.964233 243.002441,261.281342 
	C255.279800,259.342224 260.016113,263.947571 256.053070,275.958649 
	C249.900574,294.605560 237.214508,307.474762 218.130447,312.356934 
	C198.209641,317.453156 180.422195,312.166290 166.263245,297.019012 
	C161.903915,292.355408 158.881348,286.442230 155.114990,280.736633 
M196.350037,284.656372 
	C188.436157,286.191681 181.111893,288.998230 174.803955,294.278961 
	C189.846283,309.647980 223.411713,309.470947 235.314285,293.883453 
	C223.883438,285.376068 211.146103,282.600281 196.350037,284.656372 
z"/>
<path fill="#FF7F2A" opacity="1.000000" stroke="none" 
	d="
M179.154312,186.951080 
	C185.218063,196.732071 185.276627,206.802109 182.047592,217.040024 
	C179.446472,225.287094 173.183960,230.508698 166.090195,230.918365 
	C159.373840,231.306229 151.026169,226.048874 148.415955,218.488068 
	C145.314087,209.503128 144.863953,200.019806 149.111633,191.251724 
	C155.481949,178.102051 168.478500,176.302780 179.154312,186.951080 
z"/>
<path fill="#FF7F2A" opacity="1.000000" stroke="none" 
	d="
M258.408325,187.669281 
	C264.997375,197.848297 265.179352,208.283569 261.002045,218.923874 
	C257.919647,226.775238 251.241211,231.395477 244.378204,230.922913 
	C236.280991,230.365387 228.683289,224.702393 227.455627,216.469986 
	C226.371979,209.203293 226.182281,201.485489 227.416626,194.278366 
	C228.707657,186.740387 234.630051,181.976212 242.184830,180.432877 
	C248.852493,179.070786 254.077911,182.225479 258.408325,187.669281 
z"/>
<path fill="#F98E33" opacity="1.000000" stroke="none" 
	d="
M196.780914,284.565369 
	C211.146103,282.600281 223.883438,285.376068 235.314285,293.883453 
	C223.411713,309.470947 189.846283,309.647980 174.803955,294.278961 
	C181.111893,288.998230 188.436157,286.191681 196.780914,284.565369 
z"/>
</svg>